<svg xmlns="http://www.w3.org/2000/svg" viewBox="0 0 380 300" width="380" height="300" role="img">

    <rect width="380" height="300" fill="#ffffff"/>
    <rect x="0" y="0" width="380" height="4" fill="#243b62"/>
    <text x="24" y="42" font-family="Inter, ui-sans-serif, system-ui, -apple-system, BlinkMacSystemFont, Segoe UI, sans-serif" font-size="11" font-weight="800" letter-spacing="1" fill="#6b7686">MONTHLY REVENUE</text>
    <text x="24" y="84" font-family="JetBrains Mono, ui-monospace, SFMono-Regular, monospace" font-size="38" font-weight="800" fill="#111827">$82.4k</text>
    <rect x="180" y="56" width="74" height="26" rx="13" fill="#e7f3ec"/>
    <text x="217" y="74" font-family="Inter, ui-sans-serif, system-ui, -apple-system, BlinkMacSystemFont, Segoe UI, sans-serif" font-size="13" font-weight="800" fill="#2f7654" text-anchor="middle">+7.8%</text>
    <path d="M 24 250 L 24 130 L 80 150 L 136 120 L 192 132 L 248 96 L 304 108 L 356 70 L 356 250 Z"
      fill="#e7edf6"/>
    <polyline points="24,130 80,150 136,120 192,132 248,96 304,108 356,70"
      fill="none" stroke="#243b62" stroke-width="3"/>
    <circle cx="356" cy="70" r="5" fill="#b05a2a"/>
    <line x1="24" y1="250" x2="356" y2="250" stroke="#dfe4ec"/>
    <text x="24" y="272" font-family="Inter, ui-sans-serif, system-ui, -apple-system, BlinkMacSystemFont, Segoe UI, sans-serif" font-size="10" fill="#9aa4b2">Jan</text>
    <text x="336" y="272" font-family="Inter, ui-sans-serif, system-ui, -apple-system, BlinkMacSystemFont, Segoe UI, sans-serif" font-size="10" fill="#9aa4b2">Jul</text>

    <g transform="translate(310, 12)">
      <rect width="58" height="20" rx="5" fill="#ffffff" opacity="0.92"/>
      <rect width="58" height="20" rx="5" fill="none" stroke="#111827" stroke-opacity="0.25"/>
      <text x="29" y="14" font-family="Inter, ui-sans-serif, system-ui, -apple-system, BlinkMacSystemFont, Segoe UI, sans-serif" font-size="10" font-weight="800"
        letter-spacing="1" fill="#111827" text-anchor="middle">SAMPLE</text>
    </g>
</svg>
