<svg xmlns="http://www.w3.org/2000/svg" viewBox="0 0 380 260" width="380" height="260" role="img">

    <rect width="380" height="260" fill="#ffffff"/>
    <rect x="0" y="0" width="380" height="4" fill="#2e6f73"/>
    <text x="24" y="40" font-family="Inter, ui-sans-serif, system-ui, -apple-system, BlinkMacSystemFont, Segoe UI, sans-serif" font-size="13" font-weight="800" fill="#111827">What members asked for most</text>
    
      <text x="24" y="64" font-family="Inter, ui-sans-serif, system-ui, -apple-system, BlinkMacSystemFont, Segoe UI, sans-serif" font-size="11" font-weight="700" fill="#374151">Plain language</text>
      <rect x="24" y="70" width="290" height="18" rx="9" fill="#eef0f3"/>
      <rect x="24" y="70" width="226.2" height="18" rx="9" fill="#4b5563"/>
      <text x="330" y="84" font-family="JetBrains Mono, ui-monospace, SFMono-Regular, monospace" font-size="12" font-weight="700" fill="#374151">78%</text>
      <text x="24" y="108" font-family="Inter, ui-sans-serif, system-ui, -apple-system, BlinkMacSystemFont, Segoe UI, sans-serif" font-size="11" font-weight="700" fill="#374151">More examples</text>
      <rect x="24" y="114" width="290" height="18" rx="9" fill="#eef0f3"/>
      <rect x="24" y="114" width="176.9" height="18" rx="9" fill="#6b7280"/>
      <text x="330" y="128" font-family="JetBrains Mono, ui-monospace, SFMono-Regular, monospace" font-size="12" font-weight="700" fill="#374151">61%</text>
      <text x="24" y="152" font-family="Inter, ui-sans-serif, system-ui, -apple-system, BlinkMacSystemFont, Segoe UI, sans-serif" font-size="11" font-weight="700" fill="#374151">Live data</text>
      <rect x="24" y="158" width="290" height="18" rx="9" fill="#eef0f3"/>
      <rect x="24" y="158" width="98.6" height="18" rx="9" fill="#9aa1ab"/>
      <text x="330" y="172" font-family="JetBrains Mono, ui-monospace, SFMono-Regular, monospace" font-size="12" font-weight="700" fill="#374151">34%</text>
      <text x="24" y="196" font-family="Inter, ui-sans-serif, system-ui, -apple-system, BlinkMacSystemFont, Segoe UI, sans-serif" font-size="11" font-weight="700" fill="#374151">Templates</text>
      <rect x="24" y="202" width="290" height="18" rx="9" fill="#eef0f3"/>
      <rect x="24" y="202" width="63.8" height="18" rx="9" fill="#c2c7cf"/>
      <text x="330" y="216" font-family="JetBrains Mono, ui-monospace, SFMono-Regular, monospace" font-size="12" font-weight="700" fill="#374151">22%</text>

    <g transform="translate(310, 12)">
      <rect width="58" height="20" rx="5" fill="#ffffff" opacity="0.92"/>
      <rect width="58" height="20" rx="5" fill="none" stroke="#111827" stroke-opacity="0.25"/>
      <text x="29" y="14" font-family="Inter, ui-sans-serif, system-ui, -apple-system, BlinkMacSystemFont, Segoe UI, sans-serif" font-size="10" font-weight="800"
        letter-spacing="1" fill="#111827" text-anchor="middle">SAMPLE</text>
    </g>
</svg>
