<svg xmlns="http://www.w3.org/2000/svg" viewBox="0 0 380 260" width="380" height="260" role="img">

    <rect width="380" height="260" fill="#ffffff"/>
    
    <rect x="0" y="0" width="380" height="34" fill="#e9edf3"/>
    <circle cx="18" cy="17" r="5" fill="#e15b4c"/>
    <circle cx="36" cy="17" r="5" fill="#e6b24a"/>
    <circle cx="54" cy="17" r="5" fill="#4caf7d"/>
    <rect x="74" y="8" width="290" height="18" rx="9" fill="#ffffff"/>
    <text x="86" y="21" font-family="Inter, ui-sans-serif, system-ui, -apple-system, BlinkMacSystemFont, Segoe UI, sans-serif" font-size="10" fill="#7a828d">competitor.sample/pricing</text>
    <text x="24" y="68" font-family="Inter, ui-sans-serif, system-ui, -apple-system, BlinkMacSystemFont, Segoe UI, sans-serif" font-size="14" font-weight="800" fill="#111827">Plans</text>
    <rect x="24" y="84" width="100" height="150" rx="10" fill="#f4f6fa"/>
    <rect x="140" y="84" width="100" height="150" rx="10" fill="#ffffff" stroke="#d1495b" stroke-width="2"/>
    <rect x="256" y="84" width="100" height="150" rx="10" fill="#f4f6fa"/>
    <circle cx="190" cy="74" r="9" fill="#d1495b"/>
    <text x="74" y="118" font-family="Inter, ui-sans-serif, system-ui, -apple-system, BlinkMacSystemFont, Segoe UI, sans-serif" font-size="11" font-weight="800" fill="#6b7280" text-anchor="middle">Starter</text>
    <text x="190" y="118" font-family="Inter, ui-sans-serif, system-ui, -apple-system, BlinkMacSystemFont, Segoe UI, sans-serif" font-size="11" font-weight="800" fill="#d1495b" text-anchor="middle">Pro</text>
    <text x="306" y="118" font-family="Inter, ui-sans-serif, system-ui, -apple-system, BlinkMacSystemFont, Segoe UI, sans-serif" font-size="11" font-weight="800" fill="#6b7280" text-anchor="middle">Team</text>
    <text x="74" y="150" font-family="JetBrains Mono, ui-monospace, SFMono-Regular, monospace" font-size="16" font-weight="800" fill="#111827" text-anchor="middle">$0</text>
    <text x="190" y="150" font-family="JetBrains Mono, ui-monospace, SFMono-Regular, monospace" font-size="16" font-weight="800" fill="#111827" text-anchor="middle">$29</text>
    <text x="306" y="150" font-family="JetBrains Mono, ui-monospace, SFMono-Regular, monospace" font-size="16" font-weight="800" fill="#111827" text-anchor="middle">$99</text>
    <rect x="44" y="170" width="60" height="8" rx="4" fill="#dde2ea"/>
    <rect x="160" y="170" width="60" height="8" rx="4" fill="#dde2ea"/>
    <rect x="276" y="170" width="60" height="8" rx="4" fill="#dde2ea"/>
    <rect x="44" y="188" width="60" height="8" rx="4" fill="#dde2ea"/>
    <rect x="160" y="188" width="60" height="8" rx="4" fill="#dde2ea"/>
    <rect x="276" y="188" width="60" height="8" rx="4" fill="#dde2ea"/>

    <g transform="translate(310, 12)">
      <rect width="58" height="20" rx="5" fill="#ffffff" opacity="0.92"/>
      <rect width="58" height="20" rx="5" fill="none" stroke="#111827" stroke-opacity="0.25"/>
      <text x="29" y="14" font-family="Inter, ui-sans-serif, system-ui, -apple-system, BlinkMacSystemFont, Segoe UI, sans-serif" font-size="10" font-weight="800"
        letter-spacing="1" fill="#111827" text-anchor="middle">SAMPLE</text>
    </g>
</svg>
