<svg xmlns="http://www.w3.org/2000/svg" viewBox="0 0 300 420" width="300" height="420" role="img">

    <rect x="0" y="0" width="300" height="420" rx="26" fill="#0d1424"/>
    <rect x="10" y="10" width="280" height="400" rx="18" fill="#ffffff"/>
    <rect x="124" y="20" width="52" height="6" rx="3" fill="#0d1424"/>
    
      <text x="32" y="60" font-family="Inter, ui-sans-serif, system-ui, -apple-system, BlinkMacSystemFont, Segoe UI, sans-serif" font-size="17" font-weight="800" fill="#111827">Your team</text>
      <circle cx="150" cy="160" r="46" fill="#eef4ff"/>
      <circle cx="136" cy="152" r="15" fill="#c2d3f2"/>
      <circle cx="166" cy="152" r="15" fill="#c2d3f2"/>
      <path d="M 120 188 a 30 24 0 0 1 60 0 Z" fill="#c2d3f2"/>
      <text x="150" y="240" font-family="Inter, ui-sans-serif, system-ui, -apple-system, BlinkMacSystemFont, Segoe UI, sans-serif" font-size="15" font-weight="800" fill="#111827" text-anchor="middle">No teammates yet</text>
      <text x="150" y="262" font-family="Inter, ui-sans-serif, system-ui, -apple-system, BlinkMacSystemFont, Segoe UI, sans-serif" font-size="12" fill="#9aa4b2" text-anchor="middle">Invite someone to share this</text>
      <rect x="32" y="288" width="236" height="44" rx="10" fill="#f5f7fb"/>
      <text x="46" y="315" font-family="Inter, ui-sans-serif, system-ui, -apple-system, BlinkMacSystemFont, Segoe UI, sans-serif" font-size="13" fill="#9aa4b2">name@team.com</text>
      <rect x="32" y="350" width="236" height="44" rx="10" fill="#d7e2f3"/>
      <text x="150" y="378" font-family="Inter, ui-sans-serif, system-ui, -apple-system, BlinkMacSystemFont, Segoe UI, sans-serif" font-size="13" font-weight="800" fill="#7e8aa0" text-anchor="middle">Send invite</text>

    <g transform="translate(230, 12)">
      <rect width="58" height="20" rx="5" fill="#ffffff" opacity="0.92"/>
      <rect width="58" height="20" rx="5" fill="none" stroke="#111827" stroke-opacity="0.25"/>
      <text x="29" y="14" font-family="Inter, ui-sans-serif, system-ui, -apple-system, BlinkMacSystemFont, Segoe UI, sans-serif" font-size="10" font-weight="800"
        letter-spacing="1" fill="#111827" text-anchor="middle">SAMPLE</text>
    </g>
</svg>
