<svg xmlns="http://www.w3.org/2000/svg" viewBox="0 0 300 420" width="300" height="420" role="img">

    <rect x="0" y="0" width="300" height="420" rx="26" fill="#0d1424"/>
    <rect x="10" y="10" width="280" height="400" rx="18" fill="#ffffff"/>
    <rect x="124" y="20" width="52" height="6" rx="3" fill="#0d1424"/>
    
      <text x="32" y="64" font-family="Inter, ui-sans-serif, system-ui, -apple-system, BlinkMacSystemFont, Segoe UI, sans-serif" font-size="11" font-weight="800" letter-spacing="1" fill="#265fce">STEP 2 OF 4</text>
      <text x="32" y="92" font-family="Inter, ui-sans-serif, system-ui, -apple-system, BlinkMacSystemFont, Segoe UI, sans-serif" font-size="20" font-weight="800" fill="#111827">Save your first item</text>
      <g>
        <circle cx="40" cy="128" r="11" fill="#265fce"/>
        <circle cx="92" cy="128" r="11" fill="#265fce" stroke="#ce4e96" stroke-width="3"/>
        <circle cx="144" cy="128" r="11" fill="#d7e2f3"/>
        <circle cx="196" cy="128" r="11" fill="#d7e2f3"/>
        <line x1="51" y1="128" x2="81" y2="128" stroke="#265fce" stroke-width="3"/>
        <line x1="103" y1="128" x2="133" y2="128" stroke="#d7e2f3" stroke-width="3"/>
        <line x1="155" y1="128" x2="185" y2="128" stroke="#d7e2f3" stroke-width="3"/>
      </g>
      <rect x="32" y="166" width="236" height="48" rx="10" fill="#f1f5fc" stroke="#ce4e96" stroke-width="2"/>
      <text x="46" y="195" font-family="Inter, ui-sans-serif, system-ui, -apple-system, BlinkMacSystemFont, Segoe UI, sans-serif" font-size="13" fill="#9aa4b2">Name this item…</text>
      <rect x="32" y="226" width="236" height="48" rx="10" fill="#f5f7fb"/>
      <rect x="46" y="244" width="130" height="11" rx="5" fill="#cfd6e2"/>
      <rect x="32" y="342" width="236" height="44" rx="10" fill="#265fce"/>
      <text x="150" y="370" font-family="Inter, ui-sans-serif, system-ui, -apple-system, BlinkMacSystemFont, Segoe UI, sans-serif" font-size="13" font-weight="800" fill="#ffffff" text-anchor="middle">Save and continue</text>

    <g transform="translate(230, 12)">
      <rect width="58" height="20" rx="5" fill="#ffffff" opacity="0.92"/>
      <rect width="58" height="20" rx="5" fill="none" stroke="#111827" stroke-opacity="0.25"/>
      <text x="29" y="14" font-family="Inter, ui-sans-serif, system-ui, -apple-system, BlinkMacSystemFont, Segoe UI, sans-serif" font-size="10" font-weight="800"
        letter-spacing="1" fill="#111827" text-anchor="middle">SAMPLE</text>
    </g>
</svg>
