<svg xmlns="http://www.w3.org/2000/svg" viewBox="0 0 420 320" width="420" height="320" role="img">

    <rect width="420" height="320" fill="#ffffff"/>
    
    <rect x="0" y="0" width="420" height="34" fill="#e9edf3"/>
    <circle cx="18" cy="17" r="5" fill="#e15b4c"/>
    <circle cx="36" cy="17" r="5" fill="#e6b24a"/>
    <circle cx="54" cy="17" r="5" fill="#4caf7d"/>
    <rect x="74" y="8" width="330" height="18" rx="9" fill="#ffffff"/>
    <text x="86" y="21" font-family="Inter, ui-sans-serif, system-ui, -apple-system, BlinkMacSystemFont, Segoe UI, sans-serif" font-size="10" fill="#7a828d">preview.sample/landing</text>
    <rect x="0" y="34" width="420" height="120" fill="#172a63"/>
    <rect x="30" y="60" width="220" height="16" rx="4" fill="#ffffff" opacity="0.92"/>
    <rect x="30" y="84" width="170" height="16" rx="4" fill="#ffffff" opacity="0.7"/>
    <rect x="30" y="116" width="110" height="24" rx="12" fill="#ffd84d"/>
    <rect x="290" y="56" width="100" height="80" rx="8" fill="#3a4f97"/>
    <rect x="30" y="178" width="110" height="100" rx="8" fill="#eef2f8"/>
    <rect x="155" y="178" width="110" height="100" rx="8" fill="#eef2f8"/>
    <rect x="280" y="178" width="110" height="100" rx="8" fill="#eef2f8"/>
    <rect x="46" y="196" width="36" height="36" rx="8" fill="#2453d4"/>
    <rect x="171" y="196" width="36" height="36" rx="8" fill="#2453d4"/>
    <rect x="296" y="196" width="36" height="36" rx="8" fill="#2453d4"/>
    <rect x="46" y="244" width="78" height="9" rx="4" fill="#c9d3e6"/>
    <rect x="171" y="244" width="78" height="9" rx="4" fill="#c9d3e6"/>
    <rect x="296" y="244" width="78" height="9" rx="4" fill="#c9d3e6"/>

    <g transform="translate(350, 12)">
      <rect width="58" height="20" rx="5" fill="#ffffff" opacity="0.92"/>
      <rect width="58" height="20" rx="5" fill="none" stroke="#111827" stroke-opacity="0.25"/>
      <text x="29" y="14" font-family="Inter, ui-sans-serif, system-ui, -apple-system, BlinkMacSystemFont, Segoe UI, sans-serif" font-size="10" font-weight="800"
        letter-spacing="1" fill="#111827" text-anchor="middle">SAMPLE</text>
    </g>
</svg>
