<svg xmlns="http://www.w3.org/2000/svg" viewBox="0 0 340 440" width="340" height="440" role="img">

    <rect width="340" height="440" fill="#ffffff"/>
    <rect x="0" y="0" width="340" height="10" fill="#2453d4"/>
    <text x="32" y="64" font-family="Inter, ui-sans-serif, system-ui, -apple-system, BlinkMacSystemFont, Segoe UI, sans-serif" font-size="11" font-weight="800" letter-spacing="2" fill="#2453d4">WEEKLY REVIEW</text>
    <text x="32" y="104" font-family="Inter, ui-sans-serif, system-ui, -apple-system, BlinkMacSystemFont, Segoe UI, sans-serif" font-size="28" font-weight="800" fill="#111827">Sprint</text>
    <text x="32" y="138" font-family="Inter, ui-sans-serif, system-ui, -apple-system, BlinkMacSystemFont, Segoe UI, sans-serif" font-size="28" font-weight="800" fill="#111827">Progress</text>
    <rect x="32" y="168" width="180" height="9" rx="4" fill="#c9d3e6"/>
    <rect x="32" y="206" width="276" height="150" rx="10" fill="#eef2f8"/>
    <polyline points="52,330 100,300 148,312 196,266 244,284 292,240"
      fill="none" stroke="#2453d4" stroke-width="3"/>
    <circle cx="292" cy="240" r="5" fill="#e45745"/>
    <rect x="52" y="226" width="70" height="20" rx="10" fill="#ffffff"/>
    <text x="62" y="240" font-family="Inter, ui-sans-serif, system-ui, -apple-system, BlinkMacSystemFont, Segoe UI, sans-serif" font-size="11" font-weight="800" fill="#2f7654">+18%</text>
    <line x1="32" y1="386" x2="308" y2="386" stroke="#e6eaf1"/>
    <circle cx="44" cy="408" r="9" fill="#2453d4"/>
    <rect x="60" y="402" width="120" height="11" rx="5" fill="#9aa4b2"/>

    <g transform="translate(270, 12)">
      <rect width="58" height="20" rx="5" fill="#ffffff" opacity="0.92"/>
      <rect width="58" height="20" rx="5" fill="none" stroke="#111827" stroke-opacity="0.25"/>
      <text x="29" y="14" font-family="Inter, ui-sans-serif, system-ui, -apple-system, BlinkMacSystemFont, Segoe UI, sans-serif" font-size="10" font-weight="800"
        letter-spacing="1" fill="#111827" text-anchor="middle">SAMPLE</text>
    </g>
</svg>
